<svg xmlns="http://www.w3.org/2000/svg" baseProfile="tiny" version="1.2" viewBox="186.5 168.5 201 86">
	<defs/>
	<path fill="#FFF" d="M387.37 169.49v64.19l-11.85 20.46H186.65v-84.65z"/>
	<path fill="#A7A9AC" d="M327.27 192.71l-2.73-4.73 2.73-4.72h5.46l2.72 4.72-2.72 4.73zm-8.19 14.17l-2.72-4.72 2.72-4.73h5.46l2.73 4.73-2.73 4.72zm40.93-14.17l-2.73-4.73 2.73-4.72h5.46l2.73 4.72-2.73 4.73zm8.19 14.17l-2.73-4.72 2.73-4.73h5.45l2.73 4.73-2.73 4.72zm-32.74 28.36l-2.73-4.73 2.73-4.72h5.45l2.73 4.72-2.73 4.73zm16.37 0l-2.73-4.73 2.73-4.72h5.45l2.73 4.72-2.73 4.73zm-8.19-33.08l-2.73-4.73 2.73-4.72h5.46l2.73 4.72-2.73 4.73zm-8.18 14.18l-2.73-4.73 2.73-4.73h5.45l2.73 4.73-2.73 4.73zm16.37 0l-2.73-4.73 2.73-4.73h5.45l2.73 4.73-2.73 4.73z"/>
	<path fill="#72BF44" d="M327.27 202.16l-2.73-4.73 2.73-4.72h5.46l2.72 4.72-2.72 4.73zm16.37-9.45l-2.73-4.73 2.73-4.72h5.46l2.73 4.72-1 1.73-1.73 3zm-16.37 28.35l-2.73-4.72 2.73-4.73h5.46l2.72 4.73-2.72 4.72zm32.74-18.9l-2.73-4.73 2.73-4.72h5.46l2.73 4.72-2.73 4.73zm-16.37 28.35l-2.73-4.72 2.73-4.73h5.46l2.73 4.73-2.73 4.72zm16.37-9.45l-2.73-4.72 2.73-4.73h5.46l2.73 4.73-2.73 4.72z"/>
	<path fill="#B2D235" d="M335.46 187.98l-2.73-4.72 2.73-4.73h5.45l2.73 4.73-2.73 4.72zm16.37 0l-2.73-4.72 2.73-4.73h5.45l2.73 4.73-2.73 4.72zm-32.75 28.36l-2.72-4.73 2.72-4.73h5.46l2.73 4.73-2.73 4.73zm8.19 14.17l-2.73-4.72 2.73-4.73h5.46l2.72 4.73-2.72 4.72zm40.93-14.17l-2.73-4.73 2.73-4.73h5.45l2.73 4.73-2.73 4.73zm-8.19 14.17l-2.73-4.72 2.73-4.73h5.46l2.73 4.73-2.73 4.72zm-19.1-23.63h-5.45l-2.73-4.72 2.73-4.73h5.45l2.73 4.73-2.73 4.72zm16.37 0h-5.45l-2.73-4.72 2.73-4.73h5.45l2.73 4.73-2.73 4.72zm-13.64 14.18l-2.73-4.72 2.73-4.73h5.46l2.73 4.73-2.73 4.72z"/>
	<path fill="#EEE809" d="M340.91 197.43h-5.45l-2.73-4.72 2.73-4.73h5.45l2.73 4.73-2.73 4.72zm-13.64 14.18l-2.73-4.73 2.73-4.72h5.46l2.72 4.72-2.72 4.73zm30.01-14.18h-5.45l-2.73-4.72 1.73-3 1-1.73h5.45l2.73 4.73-2.73 4.72zm-16.37 28.36h-5.45l-2.73-4.73 2.73-4.72h5.45l2.73 4.72-2.73 4.73zm19.1-14.18l-2.73-4.73 2.73-4.72h5.46l2.73 4.72-2.73 4.73zm-2.73 14.18h-5.45l-2.73-4.73 2.73-4.72h5.45l2.73 4.72-2.73 4.73z"/>
	<path fill="#A7A9AC" d="M209.67 200.13v-10.42h-9.89v10.42h-2.22v-21.19h2.22v8.82h9.89v-8.82h2.22v21.19h-2.22zm21.81 0v-17.94L226.01 194c-.27.56-.5 1.36-.5 2.25v1.92h-2.22v-1.92c0-.95-.27-1.72-.5-2.25l-5.54-11.81v17.94h-2.1v-21.19h2.69l6.63 13.82 6.51-13.82h2.69v21.19h-2.19zm10.39 0v-21.19h2.22v19.24h8.35v1.95h-10.57zm22.53 0h-6.66c-.98 0-1.78-.33-2.34-.83l-.8-.74c-.71-.65-.98-1.24-.98-2.16v-1.72c0-.92.27-1.51.98-2.16l.89-.8c.59-.53 1.39-.77 2.37-.77h5.48v-1.48c0-.62-.35-1.04-.77-1.39l-.5-.44c-.68-.59-1.01-.71-1.89-.71h-5v-1.8H261c1.07 0 1.69.32 2.22.77l1.21 1.07c.92.8 1.1 1.3 1.1 2.37v9.59l-1.13 1.2zm-1.07-7.37h-4.97c-.68 0-1.1.09-1.48.42l-.56.47c-.33.3-.56.59-.56 1.07v1.66c0 .44.21.77.53 1.04l.68.56c.3.24.71.35 1.39.35h4.97v-5.57zm14.83 7.37v-9.56c0-1.01-.35-1.54-1.06-2.19l-.62-.56c-.47-.44-1.07-.83-2.16-.83h-3.79v13.14h-2.19v-13.79l1.12-1.21h5.92c1.04 0 1.66.24 2.25.77l1.89 1.72c.56.53.83.95.83 1.84v10.69h-2.19zm15.89 0h-6.13c-.89 0-1.69-.24-2.66-1.04l-1.48-1.21c-.59-.5-.92-1.18-.92-2.57v-5.36c0-1.39.33-2.07.92-2.58l1.48-1.21c.98-.8 1.75-1.04 2.63-1.04h5.09v-6.19h2.19v19.98l-1.12 1.22zm-1.06-13.15h-4.08c-1.04 0-1.6.27-2.13.68l-.8.59c-.36.27-.92.89-.92 2.1v4.53c0 1.21.56 1.83.92 2.1l.8.59c.53.41 1.1.68 2.13.68h4.08v-11.27zm-84.36 42.53v-2.07c0-.59-.09-1.21-.47-1.89l-2.58-4.83h-5.86v8.79h-2.16v-19.98l1.18-1.21h6.51c2.16 0 2.58.65 4.11 1.98.98.83 1.24 1.51 1.24 2.49v3.55c0 1.01-.27 1.69-1.27 2.49l-1.57 1.27 2.69 4.91c.41.77.5 1.57.5 2.31v2.19h-2.32zm-.29-16.31c0-.8-.27-1.36-.77-1.78l-.77-.68c-.5-.41-.92-.56-2.13-.56h-4.94v8.67h4.94c1.21 0 1.63-.15 2.13-.56l.77-.65c.5-.41.77-1.01.77-1.81v-2.63zm16.34 9.47h-8.88v1.63c0 1.21.47 1.83.83 2.1l.74.56c.53.39 1.01.68 2.01.68h5.59v1.87h-6.6c-.83 0-1.54-.24-2.49-1.04l-1.42-1.21c-.56-.5-.83-1.18-.83-2.58v-5.56c0-1.39.27-2.07.83-2.58l1.42-1.21c.95-.8 1.66-1.04 2.49-1.04h2.66c.83 0 1.54.24 2.49 1.04l1.42 1.21c.56.5.86 1.18.86 2.58v2.37l-1.12 1.18zm-1-3.34c0-1.21-.5-1.83-.86-2.1l-.74-.59c-.5-.42-1.01-.71-2.01-.71h-.68c-1.01 0-1.51.29-2.01.71l-.74.59c-.35.27-.83.89-.83 2.1v1.57h7.87v-1.57zm16.02 14.53l-1.24 1.1c-.53.44-1.15.77-2.22.77h-6.42v-1.87h5.56c.89 0 1.18-.15 1.89-.71l.56-.44c.41-.33.77-.77.77-1.39v-1.81h-5.06c-.89 0-1.69-.24-2.66-1.04l-1.48-1.21c-.59-.5-.92-1.18-.92-2.58v-5.36c0-1.39.33-2.07.92-2.58l1.48-1.21c.98-.8 1.75-1.04 2.64-1.04h7.28v16.99c0 1.08-.18 1.55-1.1 2.38zm-1.1-17.49h-4.08c-1.04 0-1.6.27-2.13.68l-.8.59c-.35.27-.92.89-.92 2.1v4.53c0 1.21.56 1.84.92 2.1l.8.59c.53.41 1.09.68 2.13.68h4.08v-11.27zm4.87-4.23v-2.81h2.31v2.81h-2.31zm.06 17.37V214.5h2.19v15.01h-2.19zm16.4-1.48l-1.18.92c-.44.33-1.15.56-1.95.56h-8.05v-1.87h7.55c.65 0 1.01-.12 1.33-.35l.5-.39c.27-.21.53-.62.53-1.07v-1.16c0-.98-.47-1.42-1.78-1.54l-5.33-.53c-2.28-.24-3.11-1.51-3.11-3.05v-1.6c0-1.09.33-1.63.8-1.98l1.18-.92c.44-.33 1.15-.56 1.95-.56h7.43v1.87h-6.93c-.65 0-1.01.12-1.33.35l-.5.38c-.27.21-.53.62-.53 1.07v.92c0 .92.47 1.36 1.72 1.48l5.03.5c2.55.27 3.46 1.36 3.46 3.02v1.95c.01 1.11-.31 1.65-.79 2zm8 1.48c-1.07 0-1.75-.24-2.28-.68l-1.21-1.07c-.89-.8-1.04-1.33-1.04-2.43v-14.09h2.19v3.25h4.65v1.87h-4.65v8.76c0 .5.18 1.01.86 1.6l.36.3c.68.56 1.07.62 1.95.62h1.48v1.87h-2.31zm7.17-13.14v13.14h-2.19v-13.79l1.12-1.21h6.45v1.87h-5.38zm18.98 17.49l-1.24 1.1c-.53.44-1.15.77-2.22.77h-6.57v-1.87h5.71c.89 0 1.18-.15 1.89-.71l.56-.44c.41-.33.77-.77.77-1.39v-1.81h-4.85c-1.04 0-1.66-.24-2.25-.77l-1.89-1.72c-.56-.53-.83-.95-.83-1.84V214.5h2.19v9.56c0 1.01.36 1.54 1.07 2.19l.62.56c.47.44 1.07.83 2.16.83h3.79V214.5h2.19v16.99c0 1.07-.18 1.54-1.1 2.37z"/>
	<path fill="none" d="M186.5 168.5h201v86h-201z"/>
</svg>
