<?xml version="1.0" standalone="no"?>
<!DOCTYPE svg PUBLIC "-//W3C//DTD SVG 20010904//EN"
 "http://www.w3.org/TR/2001/REC-SVG-20010904/DTD/svg10.dtd">
<svg version="1.0" xmlns="http://www.w3.org/2000/svg"
 width="960.000000pt" height="960.000000pt" viewBox="0 0 960.000000 960.000000"
 preserveAspectRatio="xMidYMid meet">
<metadata>
Created by potrace 1.14, written by Peter Selinger 2001-2017
</metadata>
<g transform="translate(0.000000,960.000000) scale(0.100000,-0.100000)"
fill="#000000" stroke="none">
<path d="M2858 8987 c-109 -188 -207 -357 -218 -374 l-20 -33 -436 -2 -437 -3
-219 -378 -218 -378 211 -365 c116 -201 213 -373 215 -382 3 -10 -90 -181
-209 -387 l-214 -370 -439 -5 -438 -5 -104 -180 c-57 -99 -156 -269 -218 -377
l-114 -197 215 -372 c118 -204 215 -377 215 -384 0 -7 -96 -180 -214 -385
l-215 -371 217 -374 217 -375 435 0 435 0 215 -372 c118 -205 216 -379 218
-388 1 -8 -94 -182 -212 -387 l-215 -372 72 -124 c40 -68 137 -237 217 -375
l145 -252 436 0 435 0 219 -380 220 -380 436 0 437 0 215 373 215 372 440 5
441 5 92 -160 c50 -88 148 -258 216 -377 l125 -218 437 0 436 0 220 380 219
380 436 0 436 0 36 63 c20 34 117 203 217 375 l180 314 -216 375 -217 376 25
46 c14 25 112 198 219 384 l195 337 435 0 435 0 217 375 217 375 -215 371
c-118 204 -214 376 -214 384 0 7 97 180 215 384 l215 372 -114 197 c-62 108
-161 278 -218 377 l-104 180 -438 5 -438 5 -73 125 c-39 69 -136 237 -215 374
l-143 250 19 35 c11 20 109 190 217 378 l197 342 -211 368 c-116 202 -216 374
-221 380 -8 10 -114 13 -446 15 l-437 3 -70 121 c-38 66 -135 234 -215 372
l-145 252 -436 0 -435 0 -190 -330 c-104 -181 -201 -350 -217 -375 l-27 -45
-439 0 -440 0 -34 58 c-19 31 -117 200 -217 375 l-184 317 -435 0 -436 0 -197
-343z m1085 -1204 c8 -16 44 -79 81 -142 36 -62 66 -116 66 -118 0 -3 8 -17
19 -31 10 -15 32 -52 49 -82 16 -30 54 -95 83 -145 28 -49 66 -115 84 -145
l32 -56 -27 -49 c-15 -28 -51 -90 -80 -140 -29 -49 -60 -103 -68 -120 -9 -16
-31 -53 -49 -82 -18 -29 -33 -55 -33 -58 0 -4 -21 -39 -46 -78 -26 -40 -47
-74 -46 -77 0 -3 -13 -27 -31 -55 -17 -27 -30 -53 -29 -57 1 -5 -3 -8 -8 -8
-5 0 -9 -3 -7 -7 1 -5 -1 -9 -5 -10 -5 -2 -203 -3 -442 -3 l-434 0 -29 53
c-24 43 -80 140 -155 272 -6 11 -24 40 -38 65 -15 25 -47 79 -70 120 -24 41
-60 103 -81 138 -61 100 -62 96 19 222 9 14 17 27 17 30 0 3 10 21 21 40 12
19 47 80 79 135 32 55 72 125 90 155 18 30 58 101 90 158 l58 102 438 0 438 0
14 -27z m2620 -1 c7 -15 29 -55 50 -88 20 -34 37 -65 37 -69 0 -4 9 -20 21
-36 19 -27 59 -97 125 -217 13 -23 39 -67 59 -97 19 -30 33 -55 30 -55 -2 0
13 -28 36 -62 57 -89 57 -94 6 -179 -24 -41 -63 -108 -87 -149 -23 -41 -55
-95 -70 -120 -14 -25 -32 -54 -38 -65 -62 -109 -131 -229 -153 -270 l-28 -50
-442 -5 c-413 -5 -442 -4 -450 13 -5 9 -6 17 -2 17 4 0 3 4 -2 8 -15 9 -70
105 -67 115 1 4 -3 7 -8 7 -6 0 -10 4 -10 9 0 5 -13 31 -29 58 -96 163 -154
264 -174 303 -6 14 -15 30 -20 35 -17 21 -75 125 -70 125 2 0 -4 12 -15 27
l-19 26 35 61 c19 34 52 91 72 128 21 37 47 80 59 97 12 16 21 32 21 35 0 7
126 226 190 331 20 33 39 68 43 78 6 16 36 17 447 17 l441 0 12 -28z m-1116
-2592 c113 -195 209 -364 215 -375 8 -17 -27 -85 -207 -398 l-217 -377 -437 0
-437 0 -209 363 c-115 199 -213 369 -218 378 -7 12 42 106 208 392 l217 377
440 -2 440 -3 205 -355z m-2812 329 c7 -20 21 -46 96 -171 69 -115 139 -238
139 -244 0 -3 8 -18 19 -32 10 -15 30 -47 44 -72 14 -25 45 -80 70 -123 l45
-78 -30 -57 c-17 -31 -41 -73 -54 -92 -13 -19 -24 -38 -24 -43 0 -4 -11 -24
-23 -45 -13 -20 -32 -50 -43 -67 -10 -16 -19 -32 -19 -35 0 -5 -43 -78 -115
-200 -15 -25 -48 -82 -75 -128 l-49 -82 -439 2 -439 3 -32 60 c-18 33 -44 79
-59 102 -15 24 -27 45 -27 48 0 3 -12 24 -26 47 -32 50 -134 227 -134 231 0 2
-33 59 -74 128 -43 71 -70 126 -64 130 5 3 10 10 10 15 0 5 18 41 41 79 22 39
58 99 78 135 21 36 51 88 67 115 17 28 30 52 30 55 -1 3 15 31 36 62 20 31 36
60 36 63 0 3 15 29 33 58 18 29 46 76 62 105 l28 52 443 0 c440 0 443 0 449
-21z m5274 -69 c28 -50 51 -95 51 -100 0 -6 5 -10 10 -10 6 0 10 -5 10 -10 0
-6 16 -35 35 -65 19 -30 33 -55 30 -55 -2 0 12 -27 33 -59 67 -108 197 -335
194 -339 -2 -3 1 -8 6 -11 9 -6 -45 -108 -116 -217 -17 -28 -32 -54 -32 -57 0
-4 -18 -36 -40 -72 -22 -36 -40 -67 -40 -70 0 -3 -13 -26 -28 -52 -83 -139
-118 -200 -138 -237 l-22 -41 -437 -3 c-369 -2 -438 0 -451 12 -8 8 -14 16
-14 19 0 2 -23 44 -52 93 -28 49 -68 119 -89 156 -20 37 -46 80 -57 95 -11 15
-19 30 -19 33 1 3 -13 30 -32 60 -55 92 -101 172 -131 226 l-29 51 46 79 c61
106 78 137 168 294 42 74 81 140 86 146 10 12 66 113 101 182 l22 42 442 0
441 0 52 -90z m-3949 -2227 c15 -27 62 -109 105 -183 43 -74 95 -164 115 -200
20 -36 60 -105 89 -155 29 -49 62 -104 72 -122 l18 -32 -33 -58 c-18 -32 -57
-98 -86 -148 -29 -49 -62 -108 -75 -130 -46 -84 -172 -302 -196 -340 -14 -22
-28 -48 -32 -58 -6 -16 -34 -17 -448 -15 l-441 3 -22 41 c-12 22 -40 72 -63
110 -22 38 -65 112 -95 164 -30 52 -77 134 -105 183 -28 48 -48 87 -45 87 4 0
2 4 -3 8 -25 17 -86 136 -81 157 5 19 39 79 174 310 19 33 52 89 72 125 20 36
56 97 79 135 22 39 53 93 67 120 l26 50 441 -2 440 -3 27 -47z m2614 2 c14
-27 45 -81 67 -120 23 -38 59 -99 79 -135 20 -36 53 -92 72 -125 147 -250 178
-306 178 -320 0 -8 -18 -44 -40 -80 -22 -36 -40 -67 -40 -69 0 -2 -23 -43 -52
-92 -28 -49 -76 -132 -106 -184 -30 -52 -73 -126 -95 -164 -23 -38 -51 -88
-63 -110 l-22 -41 -441 -3 c-414 -2 -442 -1 -448 15 -4 10 -23 45 -43 78 -33
53 -128 219 -190 330 -12 22 -37 66 -56 98 -151 255 -140 221 -92 303 22 38
55 94 73 124 18 30 45 78 60 105 16 28 42 70 59 95 17 25 29 45 26 45 -4 0 63
119 105 185 12 20 31 53 43 75 l20 40 440 0 440 0 26 -50z"/>
</g>
</svg>
