<svg xmlns="http://www.w3.org/2000/svg" viewBox="0 0 178.82 57.2"><path d="m129.71 14.17-2.73-4.72 2.73-4.73h5.45l2.73 4.73-2.73 4.72h-5.45zm-8.19 14.18-2.73-4.72 2.73-4.73h5.46l2.73 4.73-2.73 4.72h-5.46zm40.93-14.18-2.73-4.72 2.73-4.73h5.46l2.72 4.73-2.72 4.72h-5.46zm8.18 14.18-2.72-4.72 2.72-4.73h5.46l2.73 4.73-2.73 4.72h-5.46zm-32.74 28.36-2.73-4.73 2.73-4.72h5.46l2.73 4.72-2.73 4.73h-5.46zm16.37 0-2.72-4.73 2.72-4.72h5.46l2.73 4.72-2.73 4.73h-5.46zm-8.18-33.08-2.73-4.73 2.73-4.73h5.46l2.72 4.73-2.73 4.73h-5.45z" fill="#b2b2b2"/><path fill="#fff" d="m146.08 33.08-2.73-4.73 2.73-4.73h5.46l2.72 4.73-2.73 4.73h-5.45z"/><path d="m137.89 37.8-2.73-4.72 2.73-4.73h5.46l2.73 4.73-2.73 4.72h-5.46zm16.37 0-2.72-4.72 2.72-4.73h5.46l2.73 4.73-2.73 4.72h-5.46z" fill="#b2b2b2"/><path fill="#76b82a" d="m129.71 23.63-2.73-4.73 2.73-4.73h5.45l2.73 4.73-2.73 4.73h-5.45zm16.37-9.46-2.73-4.72 2.73-4.73h5.46l2.72 4.73-1 1.73-1.73 2.99h-5.45zm-16.37 28.36-2.73-4.73 2.73-4.72h5.45l2.73 4.72-2.73 4.73h-5.45zm32.74-18.9-2.73-4.73 2.73-4.73h5.46l2.72 4.73-2.72 4.73h-5.46zm-16.37 28.35-2.73-4.72 2.73-4.73h5.46l2.72 4.73-2.73 4.72h-5.45zm16.37-9.45-2.73-4.73 2.73-4.72h5.46l2.72 4.72-2.72 4.73h-5.46z"/><path fill="#bccf00" d="m137.89 9.45-2.73-4.73L137.89 0h5.46l2.73 4.72-2.73 4.73h-5.46zm16.37 0-2.72-4.73L154.26 0h5.46l2.73 4.72-2.73 4.73h-5.46zM121.52 37.8l-2.73-4.72 2.73-4.73h5.46l2.73 4.73-2.73 4.72h-5.46zm8.19 14.18-2.73-4.72 2.73-4.73h5.45l2.73 4.73-2.73 4.72h-5.45zm40.92-14.18-2.72-4.72 2.72-4.73h5.46l2.73 4.73-2.73 4.72h-5.46zm-8.18 14.18-2.73-4.72 2.73-4.73h5.46l2.72 4.73-2.72 4.72h-5.46zm-19.1-23.63h-5.46l-2.73-4.72 2.73-4.73h5.46l2.73 4.73-2.73 4.72zm16.37 0h-5.46l-2.72-4.72 2.72-4.73h5.46l2.73 4.73-2.73 4.72zm-13.64 14.18-2.73-4.73 2.73-4.72h5.46l2.72 4.72-2.73 4.73h-5.45z"/><path fill="#f2e500" d="M143.35 18.9h-5.46l-2.73-4.73 2.73-4.72h5.46l2.73 4.72-2.73 4.73zm-13.64 14.18-2.73-4.73 2.73-4.72h5.45l2.73 4.72-2.73 4.73h-5.45zm30.01-14.18h-5.46l-2.72-4.73 1.72-2.99 1-1.73h5.46l2.73 4.72-2.73 4.73zm-16.37 28.36h-5.46l-2.73-4.73 2.73-4.73h5.46l2.73 4.73-2.73 4.73zm19.1-14.18-2.73-4.73 2.73-4.72h5.46l2.72 4.72-2.72 4.73h-5.46zm-2.73 14.18h-5.46l-2.72-4.73 2.72-4.73h5.46l2.73 4.73-2.73 4.73z"/><path d="M12.11 21.59V11.18H2.22v10.41H0V.4h2.22v8.82h9.89V.4h2.22v21.19Zm21.81 0V3.66l-5.48 11.81a5.46 5.46 0 0 0-.5 2.25v1.92h-2.22v-1.92a5.59 5.59 0 0 0-.5-2.25L19.68 3.66v17.93h-2.1V.4h2.69l6.63 13.82L33.42.4h2.69v21.19Zm10.39 0V.4h2.22v19.24h8.35v1.95Zm22.52 0h-6.65a3.45 3.45 0 0 1-2.34-.82L57 20a2.64 2.64 0 0 1-1-2.16v-1.69A2.62 2.62 0 0 1 57 14l.89-.8a3.41 3.41 0 0 1 2.36-.77h5.48v-1.49A1.81 1.81 0 0 0 65 9.55l-.5-.45a2.31 2.31 0 0 0-1.9-.71h-5v-1.8h5.83a3.13 3.13 0 0 1 2.22.77l1.21 1.06A2.58 2.58 0 0 1 68 10.79v9.59Zm-1.06-7.37h-5a2 2 0 0 0-1.48.42l-.57.47a1.41 1.41 0 0 0-.56 1.07v1.66a1.27 1.27 0 0 0 .54 1l.68.56a2.09 2.09 0 0 0 1.39.36h5Zm14.83 7.37V12a2.66 2.66 0 0 0-1.07-2.19l-.62-.56a2.89 2.89 0 0 0-2.16-.83H73v13.17h-2.23V7.8l1.12-1.21h5.92a3 3 0 0 1 2.25.77L82 9.07a2.2 2.2 0 0 1 .83 1.84v10.68Zm15.89 0h-6.13a3.92 3.92 0 0 1-2.66-1l-1.48-1.21a3 3 0 0 1-.92-2.58v-5.39a3 3 0 0 1 .92-2.57l1.48-1.22a3.9 3.9 0 0 1 2.63-1h5.09V.4h2.2v20ZM95.42 8.45h-4.08a3.11 3.11 0 0 0-2.13.68l-.8.6a2.49 2.49 0 0 0-.92 2.1v4.53a2.52 2.52 0 0 0 .92 2.1l.8.59a3.11 3.11 0 0 0 2.13.68h4.08ZM11.07 51v-2.09A3.73 3.73 0 0 0 10.6 47L8 42.19H2.16V51H0V31l1.18-1.21H7.7c2.16 0 2.57.65 4.11 2a2.89 2.89 0 0 1 1.24 2.49v3.55a2.78 2.78 0 0 1-1.27 2.48l-1.57 1.28 2.7 4.91a4.79 4.79 0 0 1 .5 2.31V51Zm-.3-16.31a2.14 2.14 0 0 0-.77-1.8l-.77-.68a2.79 2.79 0 0 0-2.13-.56H2.16v8.67H7.1a2.79 2.79 0 0 0 2.13-.56l.77-.65a2.18 2.18 0 0 0 .77-1.81Zm16.35 9.45h-8.88v1.63a2.52 2.52 0 0 0 .83 2.1l.74.56a3 3 0 0 0 2 .68h5.6V51h-6.6a3.59 3.59 0 0 1-2.49-1l-1.42-1.21a3.09 3.09 0 0 1-.83-2.58v-5.62a3.11 3.11 0 0 1 .84-2.59l1.42-1.21a3.59 3.59 0 0 1 2.49-1h2.66a3.59 3.59 0 0 1 2.49 1L27.39 38a3.11 3.11 0 0 1 .86 2.58V43Zm-1-3.34a2.49 2.49 0 0 0-.85-2.1l-.74-.6a2.83 2.83 0 0 0-2-.71h-.68a2.81 2.81 0 0 0-2 .71l-.74.6a2.49 2.49 0 0 0-.83 2.1v1.56h7.87Zm16.02 14.53-1.25 1.09a3.13 3.13 0 0 1-2.22.78h-6.42v-1.87h5.56a2.44 2.44 0 0 0 1.9-.71l.56-.44a1.75 1.75 0 0 0 .73-1.39V51h-5a3.94 3.94 0 0 1-2.67-1l-1.47-1.21a3 3 0 0 1-.92-2.58V40.8a3 3 0 0 1 .92-2.58L33.31 37A3.87 3.87 0 0 1 36 36h7.28v17a2.62 2.62 0 0 1-1.14 2.33ZM41 37.84h-4a3.07 3.07 0 0 0-2.13.68l-.8.59a2.49 2.49 0 0 0-.92 2.1v4.53a2.47 2.47 0 0 0 .92 2.1l.8.59a3.07 3.07 0 0 0 2.13.68h4Zm4.9-4.24v-2.81h2.31v2.81ZM46 51V36h2.19v15Zm16.37-1.5-1.19.92a3.42 3.42 0 0 1-2 .56h-8v-1.87h7.55a2 2 0 0 0 1.33-.35l.5-.39a1.41 1.41 0 0 0 .54-1.06v-1.16c0-1-.48-1.42-1.78-1.54L54 44.08c-2.28-.23-3.11-1.51-3.11-3v-1.6a2.22 2.22 0 0 1 .8-2l1.19-.92a3.42 3.42 0 0 1 2-.56h7.43v1.87h-6.99a2.1 2.1 0 0 0-1.33.35l-.5.39a1.4 1.4 0 0 0-.49 1.03v.92c0 .92.47 1.36 1.71 1.48l5 .5c2.55.27 3.47 1.37 3.47 3v2a2.22 2.22 0 0 1-.81 1.96Zm8 1.5a3.34 3.34 0 0 1-2.28-.68l-1.21-1.07a2.65 2.65 0 0 1-1-2.42V32.72H68V36h4.65v1.87H68v8.73a2 2 0 0 0 .86 1.6l.35.29a2.47 2.47 0 0 0 2 .62h1.48V51Zm7.17-13.16V51h-2.19V37.19L76.47 36h6.46v1.87Zm18.98 17.49-1.24 1.09a3.17 3.17 0 0 1-2.22.78h-6.57v-1.87h5.71a2.42 2.42 0 0 0 1.89-.71l.57-.44a1.77 1.77 0 0 0 .76-1.39V51h-4.85a3 3 0 0 1-2.25-.77l-1.89-1.72a2.18 2.18 0 0 1-.83-1.83V36h2.19v9.56a2.63 2.63 0 0 0 1.06 2.19l.63.57a2.87 2.87 0 0 0 2.16.82h3.78V36h2.2v17a2.6 2.6 0 0 1-1.1 2.33Z" fill="#b2b2b2"/></svg>